<svg xmlns="http://www.w3.org/2000/svg" xmlns:xlink="http://www.w3.org/1999/xlink" contentStyleType="text/css" data-diagram-type="CLASS" height="687px" preserveAspectRatio="none" style="width:508px;height:687px;background:#FFFFFF;" version="1.1" viewBox="0 0 508 687" width="508px" zoomAndPan="magnify"><?plantuml 1.2026.3beta6?><defs/><g><!--class Transaktion--><g class="entity" data-qualified-name="Transaktion" data-source-line="1" id="ent0002"><rect fill="#F1F1F1" height="145.7813" rx="2.5" ry="2.5" style="stroke:#181818;stroke-width:0.5;" width="200.2207" x="293.68" y="163.89"/><ellipse cx="348.2615" cy="179.89" fill="#ADD1B2" rx="11" ry="11" style="stroke:#181818;stroke-width:1;"/><path d="M351.2303,185.5306 Q350.6522,185.8275 350.0115,185.9681 Q349.3709,186.1244 348.6678,186.1244 Q346.1678,186.1244 344.8397,184.4838 Q343.5272,182.8275 343.5272,179.7025 Q343.5272,176.5775 344.8397,174.9213 Q346.1678,173.265 348.6678,173.265 Q349.3709,173.265 350.0115,173.4213 Q350.6678,173.5775 351.2303,173.8744 L351.2303,176.5931 Q350.6053,176.015 350.0115,175.7494 Q349.4178,175.4681 348.7928,175.4681 Q347.449,175.4681 346.7615,176.5463 Q346.074,177.6088 346.074,179.7025 Q346.074,181.7963 346.7615,182.8744 Q347.449,183.9369 348.7928,183.9369 Q349.4178,183.9369 350.0115,183.6713 Q350.6053,183.39 351.2303,182.8119 L351.2303,185.5306 Z " fill="#000000"/><text fill="#000000" font-family="sans-serif" font-size="14" lengthAdjust="spacing" textLength="82.5576" x="368.7615" y="184.7367">Transaktion</text><line style="stroke:#181818;stroke-width:0.5;" x1="294.68" x2="492.9007" y1="195.89" y2="195.89"/><text fill="#000000" font-family="sans-serif" font-size="14" lengthAdjust="spacing" textLength="142.0371" x="299.68" y="212.8851">TransaktionID: UUID</text><text fill="#000000" font-family="sans-serif" font-size="14" lengthAdjust="spacing" textLength="105.7041" x="299.68" y="229.182">Betrag: Double</text><text fill="#000000" font-family="sans-serif" font-size="14" lengthAdjust="spacing" textLength="106.9414" x="299.68" y="245.4789">Status: TStatus</text><text fill="#000000" font-family="sans-serif" font-size="14" lengthAdjust="spacing" textLength="149.8027" x="299.68" y="261.7757">ErstelltAm: DateTime</text><text fill="#000000" font-family="sans-serif" font-size="14" lengthAdjust="spacing" textLength="153.542" x="299.68" y="278.0726">Freigegeben: Boolean</text><text fill="#000000" font-family="sans-serif" font-size="14" lengthAdjust="spacing" textLength="188.2207" x="299.68" y="294.3695">FreigegebenAm: DateTime</text><line style="stroke:#181818;stroke-width:0.5;" x1="294.68" x2="492.9007" y1="301.6713" y2="301.6713"/></g><!--class EscrowKonto--><g class="entity" data-qualified-name="EscrowKonto" data-source-line="9" id="ent0003"><rect fill="#F1F1F1" height="96.8906" rx="2.5" ry="2.5" style="stroke:#181818;stroke-width:0.5;" width="126.6318" x="330.48" y="7"/><ellipse cx="347.4373" cy="23" fill="#ADD1B2" rx="11" ry="11" style="stroke:#181818;stroke-width:1;"/><path d="M350.4061,28.6406 Q349.8279,28.9375 349.1873,29.0781 Q348.5467,29.2344 347.8436,29.2344 Q345.3436,29.2344 344.0154,27.5938 Q342.7029,25.9375 342.7029,22.8125 Q342.7029,19.6875 344.0154,18.0313 Q345.3436,16.375 347.8436,16.375 Q348.5467,16.375 349.1873,16.5313 Q349.8436,16.6875 350.4061,16.9844 L350.4061,19.7031 Q349.7811,19.125 349.1873,18.8594 Q348.5936,18.5781 347.9686,18.5781 Q346.6248,18.5781 345.9373,19.6563 Q345.2498,20.7188 345.2498,22.8125 Q345.2498,24.9063 345.9373,25.9844 Q346.6248,27.0469 347.9686,27.0469 Q348.5936,27.0469 349.1873,26.7813 Q349.7811,26.5 350.4061,25.9219 L350.4061,28.6406 Z " fill="#000000"/><text fill="#000000" font-family="sans-serif" font-size="14" lengthAdjust="spacing" textLength="90.2822" x="361.8723" y="27.8467">EscrowKonto</text><line style="stroke:#181818;stroke-width:0.5;" x1="331.48" x2="456.1118" y1="39" y2="39"/><text fill="#000000" font-family="sans-serif" font-size="14" lengthAdjust="spacing" textLength="100.1533" x="336.48" y="55.9951">KontoID: UUID</text><text fill="#000000" font-family="sans-serif" font-size="14" lengthAdjust="spacing" textLength="97.583" x="336.48" y="72.292">Saldo: Double</text><text fill="#000000" font-family="sans-serif" font-size="14" lengthAdjust="spacing" textLength="114.6318" x="336.48" y="88.5889">W&#228;hrung: String</text><line style="stroke:#181818;stroke-width:0.5;" x1="331.48" x2="456.1118" y1="95.8906" y2="95.8906"/></g><!--class Nutzer--><g class="entity" data-qualified-name="Nutzer" data-source-line="14" id="ent0004"><rect fill="#F1F1F1" height="129.4844" rx="2.5" ry="2.5" style="stroke:#181818;stroke-width:0.5;" width="186.5557" x="169.52" y="369.67"/><ellipse cx="235.2715" cy="385.67" fill="#ADD1B2" rx="11" ry="11" style="stroke:#181818;stroke-width:1;"/><path d="M238.2402,391.3106 Q237.6621,391.6075 237.0215,391.7481 Q236.3808,391.9044 235.6777,391.9044 Q233.1777,391.9044 231.8496,390.2638 Q230.5371,388.6075 230.5371,385.4825 Q230.5371,382.3575 231.8496,380.7013 Q233.1777,379.045 235.6777,379.045 Q236.3808,379.045 237.0215,379.2013 Q237.6777,379.3575 238.2402,379.6544 L238.2402,382.3731 Q237.6152,381.795 237.0215,381.5294 Q236.4277,381.2481 235.8027,381.2481 Q234.459,381.2481 233.7715,382.3263 Q233.084,383.3888 233.084,385.4825 Q233.084,387.5763 233.7715,388.6544 Q234.459,389.7169 235.8027,389.7169 Q236.4277,389.7169 237.0215,389.4513 Q237.6152,389.17 238.2402,388.5919 L238.2402,391.3106 Z " fill="#000000"/><text fill="#000000" font-family="sans-serif" font-size="14" lengthAdjust="spacing" textLength="46.5527" x="255.7715" y="390.5167">Nutzer</text><line style="stroke:#181818;stroke-width:0.5;" x1="170.52" x2="355.0757" y1="401.67" y2="401.67"/><text fill="#000000" font-family="sans-serif" font-size="14" lengthAdjust="spacing" textLength="106.0322" x="175.52" y="418.6651">NutzerID: UUID</text><text fill="#000000" font-family="sans-serif" font-size="14" lengthAdjust="spacing" textLength="92.251" x="175.52" y="434.962">Name: String</text><text fill="#000000" font-family="sans-serif" font-size="14" lengthAdjust="spacing" textLength="88.2314" x="175.52" y="451.2589">EMail: String</text><text fill="#000000" font-family="sans-serif" font-size="14" lengthAdjust="spacing" textLength="119.2256" x="175.52" y="467.5557">TrustScore: Float</text><text fill="#000000" font-family="sans-serif" font-size="14" lengthAdjust="spacing" textLength="174.5557" x="175.52" y="483.8526">HasShadowBan: Boolean</text><line style="stroke:#181818;stroke-width:0.5;" x1="170.52" x2="355.0757" y1="491.1544" y2="491.1544"/></g><!--class Inserat--><g class="entity" data-qualified-name="Inserat" data-source-line="21" id="ent0005"><rect fill="#F1F1F1" height="113.1875" rx="2.5" ry="2.5" style="stroke:#181818;stroke-width:0.5;" width="120.2129" x="202.69" y="559.15"/><ellipse cx="235.4558" cy="575.15" fill="#ADD1B2" rx="11" ry="11" style="stroke:#181818;stroke-width:1;"/><path d="M238.4245,580.7906 Q237.8464,581.0875 237.2058,581.2281 Q236.5651,581.3844 235.862,581.3844 Q233.362,581.3844 232.0339,579.7438 Q230.7214,578.0875 230.7214,574.9625 Q230.7214,571.8375 232.0339,570.1813 Q233.362,568.525 235.862,568.525 Q236.5651,568.525 237.2058,568.6813 Q237.862,568.8375 238.4245,569.1344 L238.4245,571.8531 Q237.7995,571.275 237.2058,571.0094 Q236.612,570.7281 235.987,570.7281 Q234.6433,570.7281 233.9558,571.8063 Q233.2683,572.8688 233.2683,574.9625 Q233.2683,577.0563 233.9558,578.1344 Q234.6433,579.1969 235.987,579.1969 Q236.612,579.1969 237.2058,578.9313 Q237.7995,578.65 238.4245,578.0719 L238.4245,580.7906 Z " fill="#000000"/><text fill="#000000" font-family="sans-serif" font-size="14" lengthAdjust="spacing" textLength="48.7334" x="253.4037" y="579.9967">Inserat</text><line style="stroke:#181818;stroke-width:0.5;" x1="203.69" x2="321.9029" y1="591.15" y2="591.15"/><text fill="#000000" font-family="sans-serif" font-size="14" lengthAdjust="spacing" textLength="108.2129" x="208.69" y="608.1451">InseratID: UUID</text><text fill="#000000" font-family="sans-serif" font-size="14" lengthAdjust="spacing" textLength="81.3818" x="208.69" y="624.442">Titel: String</text><text fill="#000000" font-family="sans-serif" font-size="14" lengthAdjust="spacing" textLength="77.7383" x="208.69" y="640.7389">Preis: Float</text><text fill="#000000" font-family="sans-serif" font-size="14" lengthAdjust="spacing" textLength="102.5186" x="208.69" y="657.0357">Status: IStatus</text><line style="stroke:#181818;stroke-width:0.5;" x1="203.69" x2="321.9029" y1="664.3375" y2="664.3375"/></g><!--class VerdachtsFall--><g class="entity" data-qualified-name="VerdachtsFall" data-source-line="27" id="ent0006"><rect fill="#F1F1F1" height="96.8906" rx="2.5" ry="2.5" style="stroke:#181818;stroke-width:0.5;" width="251.5859" x="7" y="188.33"/><ellipse cx="80.9546" cy="204.33" fill="#ADD1B2" rx="11" ry="11" style="stroke:#181818;stroke-width:1;"/><path d="M83.9233,209.9706 Q83.3452,210.2675 82.7046,210.4081 Q82.064,210.5644 81.3608,210.5644 Q78.8608,210.5644 77.5327,208.9238 Q76.2202,207.2675 76.2202,204.1425 Q76.2202,201.0175 77.5327,199.3613 Q78.8608,197.705 81.3608,197.705 Q82.064,197.705 82.7046,197.8613 Q83.3608,198.0175 83.9233,198.3144 L83.9233,201.0331 Q83.2983,200.455 82.7046,200.1894 Q82.1108,199.9081 81.4858,199.9081 Q80.1421,199.9081 79.4546,200.9863 Q78.7671,202.0488 78.7671,204.1425 Q78.7671,206.2363 79.4546,207.3144 Q80.1421,208.3769 81.4858,208.3769 Q82.1108,208.3769 82.7046,208.1113 Q83.2983,207.83 83.9233,207.2519 L83.9233,209.9706 Z " fill="#000000"/><text fill="#000000" font-family="sans-serif" font-size="14" lengthAdjust="spacing" textLength="95.1768" x="101.4546" y="209.1767">VerdachtsFall</text><line style="stroke:#181818;stroke-width:0.5;" x1="8" x2="257.5859" y1="220.33" y2="220.33"/><text fill="#000000" font-family="sans-serif" font-size="14" lengthAdjust="spacing" textLength="83.8906" x="13" y="237.3251">FallID: UUID</text><text fill="#000000" font-family="sans-serif" font-size="14" lengthAdjust="spacing" textLength="239.5859" x="13" y="253.622">Entscheidung: EntscheidungEnum</text><text fill="#000000" font-family="sans-serif" font-size="14" lengthAdjust="spacing" textLength="149.8027" x="13" y="269.9189">ErstelltAm: DateTime</text><line style="stroke:#181818;stroke-width:0.5;" x1="8" x2="257.5859" y1="277.2206" y2="277.2206"/></g><!--class Mitarbeiter--><g class="entity" data-qualified-name="Mitarbeiter" data-source-line="32" id="ent0007"><rect fill="#F1F1F1" height="80.5938" rx="2.5" ry="2.5" style="stroke:#181818;stroke-width:0.5;" width="148.5205" x="58.53" y="15.14"/><ellipse cx="91.2958" cy="31.14" fill="#ADD1B2" rx="11" ry="11" style="stroke:#181818;stroke-width:1;"/><path d="M94.2645,36.7806 Q93.6864,37.0775 93.0458,37.2181 Q92.4051,37.3744 91.702,37.3744 Q89.202,37.3744 87.8739,35.7337 Q86.5614,34.0775 86.5614,30.9525 Q86.5614,27.8275 87.8739,26.1712 Q89.202,24.515 91.702,24.515 Q92.4051,24.515 93.0458,24.6712 Q93.702,24.8275 94.2645,25.1244 L94.2645,27.8431 Q93.6395,27.265 93.0458,26.9994 Q92.452,26.7181 91.827,26.7181 Q90.4833,26.7181 89.7958,27.7962 Q89.1083,28.8587 89.1083,30.9525 Q89.1083,33.0462 89.7958,34.1244 Q90.4833,35.1869 91.827,35.1869 Q92.452,35.1869 93.0458,34.9212 Q93.6395,34.64 94.2645,34.0619 L94.2645,36.7806 Z " fill="#000000"/><text fill="#000000" font-family="sans-serif" font-size="14" lengthAdjust="spacing" textLength="77.041" x="109.2437" y="35.9867">Mitarbeiter</text><line style="stroke:#181818;stroke-width:0.5;" x1="59.53" x2="206.0505" y1="47.14" y2="47.14"/><text fill="#000000" font-family="sans-serif" font-size="14" lengthAdjust="spacing" textLength="136.5205" x="64.53" y="64.1351">MitarbeiterID: UUID</text><text fill="#000000" font-family="sans-serif" font-size="14" lengthAdjust="spacing" textLength="85.6338" x="64.53" y="80.432">Rolle: String</text><line style="stroke:#181818;stroke-width:0.5;" x1="59.53" x2="206.0505" y1="87.7337" y2="87.7337"/></g><!--link EscrowKonto to Transaktion--><g class="link" data-entity-1="ent0003" data-entity-2="ent0002" data-link-type="association" data-source-line="36" id="lnk8"><path codeLine="36" d="M393.79,104.03 C393.79,122.29 393.79,143.57 393.79,163.63" fill="none" id="EscrowKonto-Transaktion" style="stroke:#181818;stroke-width:1;"/><text fill="#000000" font-family="sans-serif" font-size="13" lengthAdjust="spacing" textLength="8.271" x="385.2457" y="123.9931">1</text><text fill="#000000" font-family="sans-serif" font-size="13" lengthAdjust="spacing" textLength="8.271" x="385.4096" y="152.7644">1</text></g><!--link Transaktion to Nutzer--><g class="link" data-entity-1="ent0002" data-entity-2="ent0004" data-link-type="association" data-source-line="37" id="lnk9"><path codeLine="37" d="M345.39,310.07 C332.34,329.55 318.32,350.49 305.6,369.48" fill="none" id="Transaktion-Nutzer" style="stroke:#181818;stroke-width:1;"/><text fill="#000000" font-family="sans-serif" font-size="13" lengthAdjust="spacing" textLength="8.2393" x="332.407" y="329.8435">n</text><text fill="#000000" font-family="sans-serif" font-size="13" lengthAdjust="spacing" textLength="8.271" x="301.8588" y="358.6319">1</text></g><!--link Nutzer to Inserat--><g class="link" data-entity-1="ent0004" data-entity-2="ent0005" data-link-type="association" data-source-line="38" id="lnk10"><path codeLine="38" d="M262.79,499.65 C262.79,518.95 262.79,539.96 262.79,558.68" fill="none" id="Nutzer-Inserat" style="stroke:#181818;stroke-width:1;"/><text fill="#000000" font-family="sans-serif" font-size="13" lengthAdjust="spacing" textLength="8.271" x="254.3907" y="519.2248">1</text><text fill="#000000" font-family="sans-serif" font-size="13" lengthAdjust="spacing" textLength="8.2393" x="254.3163" y="547.8863">n</text></g><!--link VerdachtsFall to Nutzer--><g class="link" data-entity-1="ent0006" data-entity-2="ent0004" data-link-type="association" data-source-line="39" id="lnk11"><path codeLine="39" d="M164.59,285.63 C181.36,310.86 202.15,342.15 220.27,369.43" fill="none" id="VerdachtsFall-Nutzer" style="stroke:#181818;stroke-width:1;"/><text fill="#000000" font-family="sans-serif" font-size="13" lengthAdjust="spacing" textLength="24.8066" x="143.3044" y="305.2785">0..1</text><text fill="#000000" font-family="sans-serif" font-size="13" lengthAdjust="spacing" textLength="8.271" x="207.1958" y="358.5764">1</text></g><!--link Mitarbeiter to VerdachtsFall--><g class="link" data-entity-1="ent0007" data-entity-2="ent0006" data-link-type="association" data-source-line="40" id="lnk12"><path codeLine="40" d="M132.79,95.8 C132.79,122.91 132.79,159.11 132.79,187.9" fill="none" id="Mitarbeiter-VerdachtsFall" style="stroke:#181818;stroke-width:1;"/><text fill="#000000" font-family="sans-serif" font-size="13" lengthAdjust="spacing" textLength="8.2393" x="124.1473" y="115.8052">n</text><text fill="#000000" font-family="sans-serif" font-size="13" lengthAdjust="spacing" textLength="8.271" x="124.2703" y="177.4004">1</text></g><?plantuml-src TLB1QiCm3BtxAqpkBTirjvMcB8oMiQJRMKr4OkRO82iKDlOt-vFzs9mqYPt1JfRifwUd9rSQd9CbWN7mpieQ-IdYDD-dydpEzqBka0cQLEvjVz4ePC70lKjbUGk4pCWnQiqFdGS1Owaw3piGgWORlA19vSvQZM1MjolubwX6GPcho5wVh64x21g38AK0NTkWvEtdkwNUU6q5apBDmdBg-GDf8BX5WU447IvmcHr1wP2Mr3ikAaiUSj0MMCX7S4KBjRtk81fZxfCRXmGyD9h2qAbKtfJ0_Um7Tmljx64-UJWJlYBLKBNi3g3rG3kSWJCpxAeMLJqE7MUPwRj_DZ5p7nK3NT3B6fs9qj3WnMgDaPtnEfBxH6usun7z4n5_eSGia9lnOjh4NElV9wF4UjJaRhkz_riSAuweLvM_?></g></svg>