<svg xmlns="http://www.w3.org/2000/svg" xmlns:xlink="http://www.w3.org/1999/xlink" contentStyleType="text/css" data-diagram-type="DESCRIPTION" height="605px" preserveAspectRatio="none" style="width:521px;height:605px;background:#FFFFFF;" version="1.1" viewBox="0 0 521 605" width="521px" zoomAndPan="magnify"><?plantuml 1.2026.3beta6?><defs/><g><!--cluster EPay--><g class="cluster" data-qualified-name="EPay" data-source-line="5" id="ent0005"><path d="M121.3,6 L160.6975,6 A3.75,3.75 0 0 1 163.1975,8.5 L170.1975,28.2969 L383.19,28.2969 A2.5,2.5 0 0 1 385.69,30.7969 L385.69,587.5 A2.5,2.5 0 0 1 383.19,590 L121.3,590 A2.5,2.5 0 0 1 118.8,587.5 L118.8,8.5 A2.5,2.5 0 0 1 121.3,6" fill="none" style="stroke:#000000;stroke-width:1.5;"/><line style="stroke:#000000;stroke-width:1.5;" x1="118.8" x2="170.1975" y1="28.2969" y2="28.2969"/><text fill="#000000" font-family="sans-serif" font-size="14" font-weight="700" lengthAdjust="spacing" textLength="38.3975" x="122.8" y="20.9951">EPay</text></g><!--entity UC1--><g class="entity" data-qualified-name="EPay.UC1" data-source-line="6" id="ent0006"><ellipse cx="252.2494" cy="226.9959" fill="#F1F1F1" rx="96.0794" ry="21.6159" style="stroke:#181818;stroke-width:0.5;"/><text fill="#000000" font-family="sans-serif" font-size="14" lengthAdjust="spacing" textLength="167.3779" x="168.5604" y="231.6443">UC-01 Kauf abschlie&#223;en</text></g><!--entity UC2--><g class="entity" data-qualified-name="EPay.UC2" data-source-line="7" id="ent0007"><ellipse cx="252.2474" cy="306.9955" fill="#F1F1F1" rx="105.9274" ry="23.5855" style="stroke:#181818;stroke-width:0.5;"/><text fill="#000000" font-family="sans-serif" font-size="14" lengthAdjust="spacing" textLength="189.041" x="157.7269" y="311.6439">UC-02 Empfang best&#228;tigen</text></g><!--entity UC7--><g class="entity" data-qualified-name="EPay.UC7" data-source-line="8" id="ent0008"><ellipse cx="252.2482" cy="389.9976" fill="#F1F1F1" rx="108.8382" ry="24.1676" style="stroke:#181818;stroke-width:0.5;"/><text fill="#000000" font-family="sans-serif" font-size="14" lengthAdjust="spacing" textLength="195.3643" x="154.5661" y="394.6461">UC-07 Trust Score einsehen</text></g><!--entity UC3--><g class="entity" data-qualified-name="EPay.UC3" data-source-line="9" id="ent0009"><ellipse cx="252.2516" cy="550.0043" fill="#F1F1F1" rx="106.0216" ry="23.6043" style="stroke:#181818;stroke-width:0.5;"/><text fill="#000000" font-family="sans-serif" font-size="14" lengthAdjust="spacing" textLength="189.2461" x="157.6285" y="554.6528">UC-03 Zahlung empfangen</text></g><!--entity UC4--><g class="entity" data-qualified-name="EPay.UC4" data-source-line="10" id="ent0010"><ellipse cx="252.25" cy="470.004" fill="#F1F1F1" rx="93.47" ry="21.094" style="stroke:#181818;stroke-width:0.5;"/><text fill="#000000" font-family="sans-serif" font-size="14" lengthAdjust="spacing" textLength="161.5537" x="171.4732" y="474.6524">UC-04 Inserat erstellen</text></g><!--entity UC6--><g class="entity" data-qualified-name="EPay.UC6" data-source-line="11" id="ent0011"><ellipse cx="252.2527" cy="143.9985" fill="#F1F1F1" rx="117.4427" ry="25.8885" style="stroke:#181818;stroke-width:0.5;"/><text fill="#000000" font-family="sans-serif" font-size="14" lengthAdjust="spacing" textLength="213.8896" x="145.3078" y="148.647">UC-06 Shadow Ban verh&#228;ngen</text></g><!--entity UC5--><g class="entity" data-qualified-name="EPay.UC5" data-source-line="12" id="ent0012"><ellipse cx="252.2548" cy="61.999" fill="#F1F1F1" rx="91.0948" ry="20.619" style="stroke:#181818;stroke-width:0.5;"/><text fill="#000000" font-family="sans-serif" font-size="14" lengthAdjust="spacing" textLength="156.2148" x="174.1474" y="66.6474">UC-05 Duplikat pr&#252;fen</text></g><!--entity K?ufer--><g class="entity" data-qualified-name="K.ufer" data-source-line="2" id="ent0002"><ellipse cx="40.4053" cy="277.35" fill="#F1F1F1" rx="8" ry="8" style="stroke:#181818;stroke-width:0.5;"/><path d="M40.4053,285.35 L40.4053,312.35 M27.4053,293.35 L53.4053,293.35 M40.4053,312.35 L27.4053,327.35 M40.4053,312.35 L53.4053,327.35" fill="none" style="stroke:#181818;stroke-width:0.5;"/><text fill="#000000" font-family="sans-serif" font-size="14" lengthAdjust="spacing" textLength="45.9307" x="17.44" y="341.8451">K&#228;ufer</text></g><!--entity Verk?ufer--><g class="entity" data-qualified-name="Verk.ufer" data-source-line="3" id="ent0003"><ellipse cx="40.4019" cy="440.35" fill="#F1F1F1" rx="8" ry="8" style="stroke:#181818;stroke-width:0.5;"/><path d="M40.4019,448.35 L40.4019,475.35 M27.4019,456.35 L53.4019,456.35 M40.4019,475.35 L27.4019,490.35 M40.4019,475.35 L53.4019,490.35" fill="none" style="stroke:#181818;stroke-width:0.5;"/><text fill="#000000" font-family="sans-serif" font-size="14" lengthAdjust="spacing" textLength="68.8037" x="6" y="504.8451">Verk&#228;ufer</text></g><!--entity Mitarbeiter--><g class="entity" data-qualified-name="Mitarbeiter" data-source-line="4" id="ent0004"><ellipse cx="468.2105" cy="73.35" fill="#F1F1F1" rx="8" ry="8" style="stroke:#181818;stroke-width:0.5;"/><path d="M468.2105,81.35 L468.2105,108.35 M455.2105,89.35 L481.2105,89.35 M468.2105,108.35 L455.2105,123.35 M468.2105,108.35 L481.2105,123.35" fill="none" style="stroke:#181818;stroke-width:0.5;"/><text fill="#000000" font-family="sans-serif" font-size="14" lengthAdjust="spacing" textLength="77.041" x="429.69" y="137.8451">Mitarbeiter</text></g><!--link K?ufer to UC1--><g class="link" data-entity-1="ent0002" data-entity-2="ent0006" data-link-type="dependency" data-source-line="14" id="lnk13"><path d="M63.74,291.76 C76.97,283.26 94.32,273.01 110.8,266 C133.51,256.34 153.49,249.9162 176.71,243.7662" fill="none" id="K&#228;ufer-to-UC1" style="stroke:#181818;stroke-width:1;"/><polygon fill="#181818" points="182.51,242.23,172.7859,240.6676,177.6767,243.5101,174.8341,248.4009,182.51,242.23" style="stroke:#181818;stroke-width:1;"/></g><!--link K?ufer to UC2--><g class="link" data-entity-1="ent0002" data-entity-2="ent0007" data-link-type="dependency" data-source-line="15" id="lnk14"><path d="M63.86,307 C83.95,307 108.93,307 139.96,307" fill="none" id="K&#228;ufer-to-UC2" style="stroke:#181818;stroke-width:1;"/><polygon fill="#181818" points="145.96,307,136.96,303,140.96,307,136.96,311,145.96,307" style="stroke:#181818;stroke-width:1;"/></g><!--link K?ufer to UC7--><g class="link" data-entity-1="ent0002" data-entity-2="ent0008" data-link-type="dependency" data-source-line="16" id="lnk15"><path d="M63.79,322.12 C77.04,330.58 94.39,340.83 110.8,348 C132.26,357.38 150.6712,363.756 172.8312,370.236" fill="none" id="K&#228;ufer-to-UC7" style="stroke:#181818;stroke-width:1;"/><polygon fill="#181818" points="178.59,371.92,171.0744,365.5548,173.791,370.5167,168.8291,373.2332,178.59,371.92" style="stroke:#181818;stroke-width:1;"/></g><!--link Verk?ufer to UC7--><g class="link" data-entity-1="ent0003" data-entity-2="ent0008" data-link-type="dependency" data-source-line="17" id="lnk16"><path d="M75.22,448.96 C86.29,442.63 98.83,436.04 110.8,431 C132.11,422.04 150.2519,415.9221 172.2119,409.6321" fill="none" id="Verk&#228;ufer-to-UC7" style="stroke:#181818;stroke-width:1;"/><polygon fill="#181818" points="177.98,407.98,168.2265,406.6128,173.1733,409.3568,170.4294,414.3036,177.98,407.98" style="stroke:#181818;stroke-width:1;"/></g><!--link Verk?ufer to UC3--><g class="link" data-entity-1="ent0003" data-entity-2="ent0009" data-link-type="dependency" data-source-line="18" id="lnk17"><path d="M75.22,491.04 C86.29,497.37 98.83,503.96 110.8,509 C132.58,518.16 151.2996,524.4261 173.6596,530.7961" fill="none" id="Verk&#228;ufer-to-UC3" style="stroke:#181818;stroke-width:1;"/><polygon fill="#181818" points="179.43,532.44,171.8703,526.1272,174.6213,531.0701,169.6785,533.8211,179.43,532.44" style="stroke:#181818;stroke-width:1;"/></g><!--link Verk?ufer to UC4--><g class="link" data-entity-1="ent0003" data-entity-2="ent0010" data-link-type="dependency" data-source-line="19" id="lnk18"><path d="M75.12,470 C97.71,470 122.64,470 152.28,470" fill="none" id="Verk&#228;ufer-to-UC4" style="stroke:#181818;stroke-width:1;"/><polygon fill="#181818" points="158.28,470,149.28,466,153.28,470,149.28,474,158.28,470" style="stroke:#181818;stroke-width:1;"/></g><!--reverse link UC6 to Mitarbeiter--><g class="link" data-entity-1="ent0011" data-entity-2="ent0004" data-link-type="dependency" data-source-line="20" id="lnk19"><path d="M348.0228,125.8407 C378.4428,120.0107 404.99,114.92 429.21,110.28" fill="none" id="UC6-backto-Mitarbeiter" style="stroke:#181818;stroke-width:1;"/><polygon fill="#181818" points="342.13,126.97,351.722,129.2045,347.0406,126.0289,350.2162,121.3475,342.13,126.97" style="stroke:#181818;stroke-width:1;"/></g><!--reverse link UC5 to Mitarbeiter--><g class="link" data-entity-1="ent0012" data-entity-2="ent0004" data-link-type="dependency" data-source-line="21" id="lnk20"><path d="M328.9027,76.4996 C364.2727,83.2796 399.94,90.11 429.34,95.74" fill="none" id="UC5-backto-Mitarbeiter" style="stroke:#181818;stroke-width:1;"/><polygon fill="#181818" points="323.01,75.37,331.096,80.9928,327.9206,76.3113,332.6021,73.1359,323.01,75.37" style="stroke:#181818;stroke-width:1;"/></g><?plantuml-src VP6xIiH058RxUOg_D4N0JVO2GIpKBMGHX5KBkvFiIMR8c8J9H17nMMpo67PvCQCPTfPLBCytt_oSY-RSmjOmgf0MEsKuiwgkHB8P-YvdauZaWKsvBswK9PEoijzLGrb91MDzIwzlukJ-CZoTOKDT3ahRJ6h5mmTN0QZ5-3WB9YN2-gd9gIgGSck7tgh2Iv6JLhWpNMknpMh3O5MrBBsrSbQCHvAw6wDuYlHAx9GvhiU_XYpOj9QrzihSAKji9Utg5rnGXMSsSkWFavPEM-2gQxGgnwZ639-vDnQ1U1TkOGZ3SpVj4Ob-aN4Clzn_OVmNdFfV1ZWBGnmSHloqT4o_0000?></g></svg>